HIERARCHY
ROOT Hips
{
	OFFSET -0.179506 -22.333345 2.821913
	CHANNELS 6 Xposition Yposition Zposition Zrotation Yrotation Xrotation 
	JOINT LeftUpLeg
	{
		OFFSET 6.951974 -9.140623 -0.681533
		CHANNELS 3 Zrotation Yrotation Xrotation
		JOINT LeftLeg
		{
			OFFSET 3.427654 -37.519855 -0.449580
			CHANNELS 3 Zrotation Yrotation Xrotation
			JOINT LeftFoot
			{
				OFFSET -1.359570 -39.796059 -4.369333
				CHANNELS 3 Zrotation Yrotation Xrotation
				JOINT LeftToe
				{
					OFFSET 2.635814 -5.579078 11.928840
					CHANNELS 3 Zrotation Yrotation Xrotation
					End Site
					{
						OFFSET 0.000000 0.000000 0.000000
					}
				}
			}
		}
	}
	JOINT RightUpLeg
	{
		OFFSET -6.767048 -9.052170 -0.431982
		CHANNELS 3 Zrotation Yrotation Xrotation
		JOINT RightLeg
		{
			OFFSET -3.829005 -38.256897 -0.885003
			CHANNELS 3 Zrotation Yrotation Xrotation
			JOINT RightFoot
			{
				OFFSET 1.577377 -39.841461 -4.231180
				CHANNELS 3 Zrotation Yrotation Xrotation
				JOINT RightToe
				{
					OFFSET -2.537174 -4.814398 12.334795
					CHANNELS 3 Zrotation Yrotation Xrotation
					End Site
					{
						OFFSET 0.000000 0.000000 0.000000
					}
				}
			}
		}
	}
	JOINT Spine
	{
		OFFSET -0.253288 10.896323 -2.669631
		CHANNELS 3 Zrotation Yrotation Xrotation
		JOINT Spine1
		{
			OFFSET 0.548704 13.518043 0.109247
			CHANNELS 3 Zrotation Yrotation Xrotation
			JOINT Spine2
			{
				OFFSET 0.145701 5.292222 2.542457
				CHANNELS 3 Zrotation Yrotation Xrotation
				JOINT Neck
				{
					OFFSET -0.277840 21.387037 -4.285703
					CHANNELS 3 Zrotation Yrotation Xrotation
					JOINT Head
					{
						OFFSET 0.515184 6.496960 5.134897
						CHANNELS 3 Zrotation Yrotation Xrotation
						End Site
						{
							OFFSET 0.000000 0.000000 0.000000
						}
					}
				}
				JOINT LeftShoulder
				{
					OFFSET 7.884473 12.174932 -3.408961
					CHANNELS 3 Zrotation Yrotation Xrotation
					JOINT LeftArm
					{
						OFFSET 9.097692 3.046888 -0.886815
						CHANNELS 3 Zrotation Yrotation Xrotation
						JOINT LeftForeArm
						{
							OFFSET 25.961220 -1.277207 -2.745643
							CHANNELS 3 Zrotation Yrotation Xrotation
							JOINT LeftHand
							{
								OFFSET 24.923361 0.898606 -0.117091
								CHANNELS 3 Zrotation Yrotation Xrotation
								End Site
								{
									OFFSET 0.000000 0.000000 0.000000
								}
							}
						}
					}
				}
				JOINT RightShoulder
				{
					OFFSET -8.175920 11.883285 -3.861528
					CHANNELS 3 Zrotation Yrotation Xrotation
					JOINT RightArm
					{
						OFFSET -9.601238 3.255117 -0.914307
						CHANNELS 3 Zrotation Yrotation Xrotation
						JOINT RightForeArm
						{
							OFFSET -25.374195 -1.332924 -2.140099
							CHANNELS 3 Zrotation Yrotation Xrotation
							JOINT RightHand
							{
								OFFSET -25.529810 0.777228 -0.555919
								CHANNELS 3 Zrotation Yrotation Xrotation
								End Site
								{
									OFFSET 0.000000 0.000000 0.000000
								}
							}
						}
					}
				}
			}
		}
	}
}
MOTION
Frames: 10
Frame Time: 0.033333
-37.753098 104.895409 -0.740957 -179.448563 62.001641 179.171124 -1.735132 2.741764 2.105356 -6.642397 -2.314829 27.831305 -7.164653 7.534635 -3.656848 5.152069 1.071074 -0.651981 2.645263 -0.144284 -17.030414 -0.419322 -12.167797 37.653401 1.203542 -11.015150 -0.598224 6.170139 -1.507855 1.945655 -2.230157 -2.132838 -0.651587 3.505089 -12.119113 9.017460 -0.273060 -3.056523 -6.571296 -2.476813 -11.418386 0.052451 12.142896 -1.049497 -4.790388 -4.760581 -13.541946 -5.638878 -53.718408 -39.204979 16.788889 40.660810 -72.482873 -23.313821 0.830523 -17.465249 8.888673 7.594296 -1.285075 2.753495 38.067887 -17.447321 12.279501 7.276042 49.578611 16.818672 5.571555 10.388317 -1.193538 
-39.235867 105.044128 -0.438953 -178.944310 60.576018 -179.771710 -2.654494 3.089429 7.843332 -5.656885 -6.806115 17.074094 -7.527809 7.704528 -6.021145 5.948981 1.276266 -0.670532 -0.486953 0.166233 -24.210612 -0.482897 -14.406819 45.803354 3.502807 -8.627778 0.359181 6.415093 -1.511750 2.224719 -1.703749 -3.638453 0.112140 3.117627 -13.027264 8.777428 -0.550135 -3.524955 -6.117608 -3.085884 -10.486955 0.350589 12.868529 -0.311613 -5.428263 -3.693420 -15.187323 -5.791827 -52.418216 -38.809054 18.110671 29.226730 -77.939248 -10.302346 -1.794266 -18.703959 10.519283 6.063159 -1.321142 3.401244 31.912215 -19.646740 15.704230 24.246452 57.471833 37.983192 6.917297 12.263882 1.888749 
-40.740936 105.043465 -0.207532 -177.870632 59.495477 -178.929290 -2.674886 4.089649 11.518868 -4.723247 -9.765581 9.428764 -7.079795 7.922051 -9.640062 7.199026 1.160753 -1.289642 -3.675711 -0.565591 -31.000419 -1.019508 -16.053531 54.596501 4.707317 -8.267426 2.304926 6.700799 -1.270056 2.373655 -0.943890 -5.031188 1.760424 2.970831 -13.431607 7.897271 -0.881097 -4.027115 -5.447729 -3.531598 -9.651047 0.248212 12.989500 0.038991 -5.953563 -2.045892 -16.649000 -6.257060 -51.840020 -39.159040 18.507411 9.384756 -81.055719 10.196637 -1.944615 -19.130813 10.109219 4.911430 -1.495556 3.641560 27.468323 -20.587768 17.715122 38.747351 60.066755 52.954217 7.348398 13.306306 3.185784 
-41.866570 105.044571 -0.171471 -176.313791 59.081418 -178.594062 -2.239576 5.060767 13.382431 -4.387592 -10.321756 6.255309 -6.398424 8.474099 -11.235552 8.161746 1.009496 -1.822235 -5.465923 -1.218948 -35.503833 -1.282246 -17.388500 61.369122 4.801627 -8.178761 5.089970 7.288256 -1.050900 2.402631 -0.335393 -5.997248 2.968159 2.898263 -13.572135 7.520869 -1.137764 -4.335657 -4.991718 -3.760543 -9.493448 0.420893 12.969774 0.342176 -6.106096 -1.143935 -17.715829 -6.380201 -51.852810 -39.582936 18.600176 -9.713163 -81.984465 29.967421 -2.243305 -19.139653 10.412497 3.938276 -1.755873 3.599565 24.630863 -20.960466 18.466277 47.501464 61.699427 61.931533 7.953215 13.430016 4.443132 
-42.539291 105.122902 -0.259912 -175.536747 58.854843 -178.779673 -1.834973 5.551361 13.540776 -4.836427 -9.485980 6.469444 -6.108298 8.851021 -11.603447 8.629316 0.905380 -2.162803 -6.007264 -1.405445 -37.183101 -1.103426 -17.961752 64.177029 4.413390 -8.353152 6.141457 7.704339 -0.949364 2.331964 -0.101300 -6.481301 3.528881 2.741001 -13.598325 7.439040 -1.222751 -4.542605 -4.684576 -3.642865 -9.703567 0.572868 12.829058 0.555753 -5.530987 -0.869231 -18.132559 -6.291286 -51.878962 -39.408355 19.064085 -28.172125 -82.460877 48.953049 -2.797351 -18.745503 9.959335 3.354431 -2.059820 3.255920 22.599072 -20.790467 18.823033 51.060871 62.686876 65.548389 8.922699 12.755634 5.177792 
-42.729256 105.415192 -0.439980 -174.846873 58.712382 -179.140857 -1.378023 5.360211 12.752160 -5.336379 -8.420695 9.053226 -6.386974 8.666172 -11.078825 8.642090 0.899868 -2.272140 -4.980384 -0.857595 -36.266995 -0.684334 -17.644292 63.446443 3.803549 -8.421853 6.289082 8.088308 -1.002092 2.270171 -0.230111 -6.692910 3.512879 2.573941 -13.876724 7.522228 -1.079380 -4.881349 -4.461823 -3.579158 -10.113366 0.962671 12.863784 1.053871 -5.013623 -1.041233 -18.276317 -5.953080 -52.811219 -39.220631 19.958127 -41.450805 -82.265259 62.458850 -3.020929 -18.863273 9.053996 2.680634 -2.383439 2.940468 20.976114 -20.674348 18.914625 52.247687 63.337617 66.094185 9.100940 12.588783 4.906312 
-44.448868 105.906250 -0.775243 -174.448393 59.383896 -179.518116 -0.891698 4.951660 11.143172 -5.966916 -7.412667 12.938355 -7.240087 6.876209 -10.393221 8.196143 0.951543 -2.215639 -2.884330 -0.125802 -33.293775 0.110784 -16.296248 59.354113 3.141972 -8.915435 5.055947 8.150354 -1.085303 2.203203 -0.520764 -6.541200 2.855269 2.442557 -14.053843 7.727196 -0.885766 -5.067726 -4.332660 -3.770534 -10.618306 1.751159 13.020980 1.736375 -4.407984 -1.356393 -17.930844 -5.568342 -53.525470 -38.887970 20.657966 -47.203573 -81.743743 68.420138 -3.348434 -18.950673 8.520854 1.951431 -2.482224 2.754590 19.162652 -20.066844 18.504694 50.491884 63.542317 63.413345 9.426690 12.305497 4.536400 
-45.771984 106.487839 -1.270494 -173.030596 60.597035 -179.042465 -0.028335 3.941806 7.190157 -6.773896 -4.862019 22.013081 -6.838754 7.607180 -9.228728 7.350593 0.799357 -2.083105 -0.161416 0.876685 -28.672886 0.946793 -14.313299 52.404891 2.262636 -9.260418 3.613947 8.015554 -1.014595 2.085799 -0.915169 -5.909860 2.120165 2.387084 -14.205244 7.981465 -0.410932 -5.178982 -4.340418 -3.960289 -11.425170 2.637014 13.126413 2.773573 -3.835064 -1.726502 -17.719709 -5.318877 -53.641099 -38.608416 21.308406 -47.047840 -80.793350 68.964353 -4.756340 -18.191656 8.926092 1.296322 -2.377480 2.346119 17.180579 -18.712965 17.974752 46.002755 63.402772 59.004481 10.745809 11.679878 5.096820 
-46.978802 107.034729 -1.865268 -171.721286 62.867883 -178.171124 0.749654 3.110944 2.542040 -7.263155 -1.761033 30.890442 -6.579013 8.273671 -7.398246 6.524607 0.683289 -1.881307 2.394512 1.933432 -23.930166 2.076032 -11.434398 44.164936 1.731856 -8.920356 1.203184 7.771428 -0.927845 1.930304 -1.007577 -5.065772 1.655804 2.515748 -14.190380 7.836738 -0.030541 -5.067594 -4.459690 -4.082524 -11.392615 3.788462 13.324630 3.872953 -3.237226 -1.620042 -17.676852 -5.301415 -52.846058 -38.315103 21.512984 -42.010189 -79.309894 64.320322 -5.269379 -17.168862 9.994790 0.936234 -1.868513 1.911304 16.197521 -17.189697 16.999860 39.471911 63.121198 51.890063 11.233713 11.111859 5.429237 
-48.461227 107.453827 -2.392884 -168.806703 66.668926 -176.047339 1.609023 1.909610 -1.912248 -7.644305 -0.157097 38.503253 -6.101871 8.267659 -5.619135 5.541307 0.539078 -1.664956 4.121677 2.799625 -19.421121 3.163384 -8.146823 36.085055 1.832523 -8.163458 0.754046 7.503507 -0.849597 1.898094 -0.995272 -4.025319 2.087198 2.864177 -13.799439 7.332553 0.382972 -4.860072 -4.645866 -4.058929 -10.874525 4.533647 13.361983 5.339179 -3.207116 -1.720731 -18.141749 -5.053493 -51.130122 -37.765695 20.405305 -32.746459 -76.459831 55.995252 -6.946445 -15.952634 12.095644 0.880864 -0.625743 1.334597 15.497156 -14.706555 15.226262 33.954218 63.766115 47.242461 11.623183 10.984767 5.354517 
